<svg width="39" height="33" viewBox="0 0 39 33" fill="none" xmlns="http://www.w3.org/2000/svg">
<path d="M12.5108 19.2306L13.35 19.9372L12.5108 19.2306ZM16.9885 19.2306L16.1493 19.9372L16.9885 19.2306ZM17.2608 19.4599L18.1 18.7532L17.2608 19.4599ZM21.7385 19.4599L20.8993 18.7532L21.7385 19.4599ZM25.1775 16.5639L24.3383 15.8572L25.1775 16.5639ZM29.6552 16.5639L30.4943 15.8572L29.6552 16.5639ZM8.41634 6.34525H30.583V4.34525H8.41634V6.34525ZM30.9788 6.67858V25.3452H33.3538V6.67858H30.9788ZM30.583 25.6786H8.41634V27.6786H30.583V25.6786ZM8.02051 25.3452V6.67858H5.64551V25.3452H8.02051ZM8.41634 25.6786C8.31136 25.6786 8.21068 25.6435 8.13644 25.5809C8.06221 25.5184 8.02051 25.4337 8.02051 25.3452H5.64551C5.64551 26.6332 6.88684 27.6786 8.41634 27.6786V25.6786ZM30.9788 25.3452C30.9788 25.4337 30.9371 25.5184 30.8629 25.5809C30.7887 25.6435 30.688 25.6786 30.583 25.6786V27.6786C31.3179 27.6786 32.0226 27.4327 32.5423 26.9952C33.0619 26.5576 33.3538 25.9641 33.3538 25.3452H30.9788ZM30.583 6.34525C30.688 6.34525 30.7887 6.38036 30.8629 6.44288C30.9371 6.50539 30.9788 6.59017 30.9788 6.67858H33.3538C33.3538 6.05974 33.0619 5.46625 32.5423 5.02866C32.0226 4.59108 31.3179 4.34525 30.583 4.34525V6.34525ZM8.41634 4.34525C7.68147 4.34525 6.9767 4.59108 6.45707 5.02866C5.93743 5.46625 5.64551 6.05974 5.64551 6.67858H8.02051C8.02051 6.59017 8.06221 6.50539 8.13644 6.44288C8.21068 6.38036 8.31136 6.34525 8.41634 6.34525V4.34525ZM7.67217 24.7186L13.35 19.9372L11.6717 18.5239L5.99384 23.3052L7.67217 24.7186ZM16.1493 19.9372L16.4201 20.1666L18.1 18.7532L17.8293 18.5239L16.1493 19.9372ZM22.5777 20.1666L26.0167 17.2719L24.3383 15.8572L20.8993 18.7519L22.5777 20.1666ZM28.816 17.2719L31.3272 19.3852L33.0055 17.9719L30.4959 15.8572L28.816 17.2706V17.2719ZM26.0167 17.2719C26.2005 17.1171 26.4187 16.9943 26.6588 16.9105C26.899 16.8267 27.1564 16.7836 27.4163 16.7836C27.6763 16.7836 27.9337 16.8267 28.1739 16.9105C28.414 16.9943 28.6322 17.1171 28.816 17.2719L30.4943 15.8572C29.6778 15.1701 28.5707 14.784 27.4163 14.784C26.262 14.784 25.1548 15.1701 24.3383 15.8572L26.0167 17.2706V17.2719ZM16.4217 20.1666C17.2382 20.8542 18.3457 21.2405 19.5005 21.2405C20.6552 21.2405 21.7627 20.8542 22.5793 20.1666L20.8993 18.7532C20.7155 18.9081 20.4973 19.0309 20.2572 19.1146C20.017 19.1984 19.7596 19.2416 19.4997 19.2416C19.2397 19.2416 18.9823 19.1984 18.7422 19.1146C18.502 19.0309 18.2838 18.9081 18.1 18.7532L16.4217 20.1666ZM13.35 19.9386C13.5338 19.7838 13.752 19.661 13.9922 19.5772C14.2323 19.4934 14.4897 19.4503 14.7497 19.4503C15.0096 19.4503 15.267 19.4934 15.5072 19.5772C15.7473 19.661 15.9656 19.7838 16.1493 19.9386L17.8277 18.5239C17.0111 17.8363 15.9036 17.45 14.7489 17.45C13.5941 17.45 12.4866 17.8363 11.6701 18.5239L13.35 19.9372V19.9386ZM16.2396 11.8066C16.2396 12.6132 15.4622 13.2679 14.5043 13.2679V15.2679C15.5943 15.2676 16.6395 14.9028 17.4102 14.2537C18.181 13.6047 18.6142 12.7245 18.6146 11.8066H16.2396ZM14.5043 13.2679C13.5479 13.2679 12.7705 12.6146 12.7705 11.8066H10.3955C10.3955 12.7243 10.8283 13.6046 11.5988 14.2536C12.3693 14.9027 13.4144 15.2676 14.5043 15.2679V13.2679ZM12.7705 11.8066C12.7705 10.9999 13.5479 10.3452 14.5043 10.3452V8.34525C13.4144 8.3456 12.3693 8.71043 11.5988 9.35952C10.8283 10.0086 10.3955 10.8888 10.3955 11.8066H12.7705ZM14.5043 10.3452C15.4622 10.3452 16.2396 10.9999 16.2396 11.8066H18.6146C18.6142 10.8887 18.181 10.0085 17.4102 9.35944C16.6395 8.71039 15.5943 8.3456 14.5043 8.34525V10.3452Z" fill="#9C9896"/>
</svg>
