<svg width="36" height="37" viewBox="0 0 36 37" fill="none" xmlns="http://www.w3.org/2000/svg">
<circle cx="18" cy="18.5" r="18" fill="white"/>
<path d="M28.2 11.75C26.8749 10.4215 25.1185 9.61068 23.2479 9.46397C21.3773 9.31726 19.5159 9.84434 18 10.95C16.4095 9.76706 14.43 9.23065 12.4599 9.44881C10.4898 9.66696 8.67553 10.6235 7.38244 12.1257C6.08936 13.628 5.41351 15.5644 5.49098 17.545C5.56845 19.5256 6.3935 21.4033 7.79998 22.8L15.5625 30.575C16.2125 31.2147 17.088 31.5733 18 31.5733C18.912 31.5733 19.7875 31.2147 20.4375 30.575L28.2 22.8C29.6595 21.3316 30.4786 19.3453 30.4786 17.275C30.4786 15.2047 29.6595 13.2184 28.2 11.75ZM26.4375 21.075L18.675 28.8375C18.5866 28.9267 18.4815 28.9975 18.3657 29.0458C18.2498 29.0941 18.1255 29.119 18 29.119C17.8744 29.119 17.7502 29.0941 17.6343 29.0458C17.5184 28.9975 17.4133 28.9267 17.325 28.8375L9.56248 21.0375C8.58218 20.0354 8.03324 18.6893 8.03324 17.2875C8.03324 15.8857 8.58218 14.5396 9.56248 13.5375C10.5614 12.5512 11.9087 11.9982 13.3125 11.9982C14.7163 11.9982 16.0635 12.5512 17.0625 13.5375C17.1787 13.6547 17.3169 13.7477 17.4693 13.8111C17.6216 13.8746 17.785 13.9073 17.95 13.9073C18.115 13.9073 18.2784 13.8746 18.4307 13.8111C18.583 13.7477 18.7213 13.6547 18.8375 13.5375C19.8364 12.5512 21.1837 11.9982 22.5875 11.9982C23.9913 11.9982 25.3385 12.5512 26.3375 13.5375C27.3313 14.5264 27.8982 15.8652 27.9169 17.2671C27.9356 18.669 27.4045 20.0224 26.4375 21.0375V21.075Z" fill="#303030" fill-opacity="0.15"/>
</svg>
