<svg width="28" height="29" viewBox="0 0 28 29" fill="none" xmlns="http://www.w3.org/2000/svg">
<path d="M14 2.83334C11.5247 2.83334 9.1507 3.81667 7.40036 5.56701C5.65002 7.31735 4.66669 9.69132 4.66669 12.1667C4.66669 18.4667 12.8917 25.5833 13.2417 25.8867C13.453 26.0674 13.7219 26.1668 14 26.1668C14.2781 26.1668 14.547 26.0674 14.7584 25.8867C15.1667 25.5833 23.3334 18.4667 23.3334 12.1667C23.3334 9.69132 22.35 7.31735 20.5997 5.56701C18.8493 3.81667 16.4754 2.83334 14 2.83334ZM14 23.425C11.515 21.0917 7.00002 16.0633 7.00002 12.1667C7.00002 10.3102 7.73752 8.52968 9.05027 7.21693C10.363 5.90417 12.1435 5.16668 14 5.16668C15.8565 5.16668 17.637 5.90417 18.9498 7.21693C20.2625 8.52968 21 10.3102 21 12.1667C21 16.0633 16.485 21.1033 14 23.425ZM14 7.50001C13.077 7.50001 12.1748 7.77371 11.4074 8.28648C10.6399 8.79926 10.0418 9.5281 9.68858 10.3808C9.33537 11.2335 9.24296 12.1719 9.42302 13.0771C9.60309 13.9823 10.0475 14.8139 10.7002 15.4665C11.3528 16.1192 12.1844 16.5636 13.0896 16.7437C13.9948 16.9237 14.9332 16.8313 15.7859 16.4781C16.6386 16.1249 17.3674 15.5268 17.8802 14.7593C18.393 13.9919 18.6667 13.0897 18.6667 12.1667C18.6667 10.929 18.175 9.74201 17.2999 8.86684C16.4247 7.99167 15.2377 7.50001 14 7.50001ZM14 14.5C13.5385 14.5 13.0874 14.3632 12.7037 14.1068C12.32 13.8504 12.0209 13.486 11.8443 13.0596C11.6677 12.6332 11.6215 12.1641 11.7115 11.7115C11.8016 11.2588 12.0238 10.8431 12.3501 10.5168C12.6764 10.1904 13.0922 9.96821 13.5448 9.87818C13.9974 9.78815 14.4666 9.83435 14.8929 10.011C15.3193 10.1876 15.6837 10.4866 15.9401 10.8703C16.1965 11.2541 16.3334 11.7052 16.3334 12.1667C16.3334 12.7855 16.0875 13.379 15.6499 13.8166C15.2124 14.2542 14.6189 14.5 14 14.5Z" fill="#303030"/>
</svg>
