<svg width="42" height="41" viewBox="0 0 42 41" fill="none" xmlns="http://www.w3.org/2000/svg">
<path d="M18.5308 0.857237C19.9772 -0.271397 22.0059 -0.271398 23.4523 0.857235L26.8441 3.50394C27.4151 3.94946 28.0963 4.23161 28.815 4.3203L33.0849 4.84719C34.9057 5.07187 36.3402 6.5064 36.5649 8.32721L37.0918 12.5971C37.1805 13.3158 37.4626 13.997 37.9082 14.568L40.5549 17.9598C41.6835 19.4062 41.6835 21.4349 40.5549 22.8813L37.9082 26.2731C37.4626 26.8441 37.1805 27.5253 37.0918 28.244L36.5649 32.5139C36.3402 34.3347 34.9057 35.7693 33.0849 35.9939L28.815 36.5208C28.0963 36.6095 27.4151 36.8917 26.8441 37.3372L23.4523 39.9839C22.0059 41.1125 19.9772 41.1125 18.5308 39.9839L15.139 37.3372C14.568 36.8917 13.8868 36.6095 13.1681 36.5208L8.8982 35.9939C7.07739 35.7693 5.64285 34.3347 5.41817 32.5139L4.89129 28.244C4.8026 27.5253 4.52044 26.8441 4.07492 26.2731L1.42822 22.8813C0.299587 21.4349 0.299586 19.4062 1.42822 17.9598L4.07492 14.568C4.52044 13.997 4.8026 13.3158 4.89129 12.5971L5.41817 8.32721C5.64285 6.50641 7.07739 5.07187 8.8982 4.84719L13.1681 4.3203C13.8868 4.23161 14.568 3.94946 15.139 3.50394L18.5308 0.857237Z" fill="url(#paint0_linear_1_286)"/>
<defs>
<linearGradient id="paint0_linear_1_286" x1="18.508" y1="64.937" x2="73.008" y2="33.4371" gradientUnits="userSpaceOnUse">
<stop stop-color="#FAA677"/>
<stop offset="1" stop-color="#FAA677" stop-opacity="0.47"/>
</linearGradient>
</defs>
</svg>
